# xmcd
#
# Track frame offsets: 
#        180
#        17455
#        30570
#        46850
#        64335
#        81005
#        95035
#        107370
#        122210
#        141575
#        157235
#        168940
#
# Disc length: 2453 seconds
#
# Revision: 1
# Processed by: cddbd v1.5.2PL0 Copyright (c) Steve Scherf et al.
# Submitted via: ExactAudioCopy v0.99pb4
#
DISCID=9c09930c
DTITLE=Michal Tucny - Stastne stare slunce
DYEAR=1994
DGENRE=Country
TTITLE0=Stastne stare slunce
TTITLE1=Slamu v botach nosim
TTITLE2=Long Black Limousine
TTITLE3=Jelen bily
TTITLE4=Slunce shanim
TTITLE5=Az prijde ten den
TTITLE6=Sweet Dreams
TTITLE7=Ja si jen tak litam
TTITLE8=Dest
TTITLE9=Biblickou krajinou
TTITLE10=Drat v srdci
TTITLE11=Pane muj ...
EXTD=YEAR: 1994
EXTT0=
EXTT1=
EXTT2=
EXTT3=
EXTT4=
EXTT5=
EXTT6=
EXTT7=
EXTT8=
EXTT9=
EXTT10=
EXTT11=
PLAYORDER=
